<svg width="32" height="31" viewBox="0 0 32 31" fill="none" xmlns="http://www.w3.org/2000/svg">
<path d="M13.1427 30.8568C12.6881 30.8568 12.252 30.6762 11.9305 30.3547C11.6091 30.0332 11.4285 29.5972 11.4285 29.1425C11.4285 28.6879 11.6091 28.2519 11.9305 27.9304C12.252 27.6089 12.6881 27.4283 13.1427 27.4283C13.5974 27.4283 14.0334 27.6089 14.3549 27.9304C14.6764 28.2519 14.857 28.6879 14.857 29.1425C14.857 29.5972 14.6764 30.0332 14.3549 30.3547C14.0334 30.6762 13.5974 30.8568 13.1427 30.8568ZM24.5712 30.8568C24.1165 30.8568 23.6805 30.6762 23.359 30.3547C23.0375 30.0332 22.8569 29.5972 22.8569 29.1425C22.8569 28.6879 23.0375 28.2519 23.359 27.9304C23.6805 27.6089 24.1165 27.4283 24.5712 27.4283C25.0258 27.4283 25.4619 27.6089 25.7833 27.9304C26.1048 28.2519 26.2854 28.6879 26.2854 29.1425C26.2854 29.5972 26.1048 30.0332 25.7833 30.3547C25.4619 30.6762 25.0258 30.8568 24.5712 30.8568ZM1.14285 2.28569C0.839744 2.28569 0.549056 2.16528 0.334731 1.95096C0.120406 1.73663 0 1.44595 0 1.14285C0 0.839744 0.120406 0.549057 0.334731 0.334732C0.549056 0.120406 0.839744 0 1.14285 0H6.85707C7.12117 0.0001595 7.37707 0.0917844 7.58125 0.259296C7.78543 0.426808 7.92529 0.659867 7.97706 0.918847L9.16562 6.85707H30.8568C31.0273 6.85702 31.1956 6.89511 31.3495 6.96855C31.5033 7.042 31.6388 7.14893 31.746 7.28152C31.8531 7.4141 31.9293 7.56899 31.9688 7.73482C32.0084 7.90065 32.0103 8.07323 31.9745 8.23991L28.546 24.2397C28.4911 24.4954 28.3502 24.7245 28.1468 24.8888C27.9434 25.0531 27.6898 25.1427 27.4283 25.1426H11.4285C11.1643 25.1424 10.9085 25.0508 10.7043 24.8833C10.5001 24.7158 10.3602 24.4827 10.3085 24.2237L5.91994 2.28569H1.14285ZM12.3656 22.8569H26.5049L29.4443 9.14276H9.62276L12.3656 22.8569Z" fill="white"/>
</svg>
