<svg width="109" height="30" viewBox="0 0 109 30" fill="none" xmlns="http://www.w3.org/2000/svg">
<path d="M15 7.5C15 11.6421 11.6421 15 7.5 15H0V7.5C0 3.35786 3.35786 0 7.5 0C11.6421 0 15 3.35786 15 7.5Z" fill="#17CF97"/>
<path d="M15 22.5C15 18.3579 18.3579 15 22.5 15H30V22.5C30 26.6422 26.6421 30 22.5 30C18.3579 30 15 26.6422 15 22.5Z" fill="#17CF97"/>
<path d="M0 22.5C0 26.6422 3.35786 30 7.5 30H15V22.5C15 18.3579 11.6421 15 7.5 15C3.35786 15 0 18.3579 0 22.5Z" fill="#17CF97"/>
<path d="M30 7.5C30 3.35786 26.6421 0 22.5 0H15V7.5C15 11.6421 18.3579 15 22.5 15C26.6421 15 30 11.6421 30 7.5Z" fill="#17CF97"/>
<path d="M43.9375 26.3182C43.1278 26.3182 42.4318 26.214 41.8494 26.0057C41.267 25.8021 40.7817 25.5322 40.3935 25.196C40.0099 24.8646 39.7045 24.5095 39.4773 24.1307L40.8125 23.1932C40.964 23.392 41.1558 23.6193 41.3878 23.875C41.6198 24.1354 41.937 24.3603 42.3395 24.5497C42.7467 24.7438 43.2794 24.8409 43.9375 24.8409C44.8182 24.8409 45.545 24.6278 46.1179 24.2017C46.6908 23.7756 46.9773 23.108 46.9773 22.1989V19.983H46.8352C46.7121 20.1818 46.5369 20.428 46.3097 20.7216C46.0871 21.0104 45.7652 21.2685 45.3438 21.4957C44.9271 21.7183 44.3636 21.8295 43.6534 21.8295C42.7727 21.8295 41.982 21.6212 41.2812 21.2045C40.5852 20.7879 40.0336 20.1818 39.6264 19.3864C39.224 18.5909 39.0227 17.625 39.0227 16.4886C39.0227 15.3712 39.2192 14.3982 39.6122 13.5696C40.0052 12.7363 40.5521 12.0923 41.2528 11.6378C41.9536 11.1785 42.7633 10.9489 43.6818 10.9489C44.392 10.9489 44.9555 11.0672 45.3722 11.304C45.7936 11.536 46.1155 11.8011 46.3381 12.0994C46.5653 12.393 46.7405 12.6345 46.8636 12.8239H47.0341V11.0909H48.6534V22.3125C48.6534 23.25 48.4403 24.0123 48.0142 24.5994C47.5928 25.1913 47.0246 25.6245 46.3097 25.8991C45.5994 26.1785 44.8087 26.3182 43.9375 26.3182ZM43.8807 20.3239C44.553 20.3239 45.1212 20.17 45.5852 19.8622C46.0492 19.5545 46.402 19.1117 46.6435 18.5341C46.8849 17.9564 47.0057 17.2652 47.0057 16.4602C47.0057 15.6742 46.8873 14.9806 46.6506 14.3793C46.4138 13.7779 46.0634 13.3068 45.5994 12.9659C45.1354 12.625 44.5625 12.4545 43.8807 12.4545C43.1705 12.4545 42.5786 12.6345 42.1051 12.9943C41.6364 13.3542 41.2836 13.8371 41.0469 14.4432C40.8149 15.0492 40.6989 15.7216 40.6989 16.4602C40.6989 17.2178 40.8172 17.8878 41.054 18.4702C41.2955 19.0478 41.6506 19.5024 42.1193 19.8338C42.5928 20.1605 43.1799 20.3239 43.8807 20.3239ZM56.2955 22.2273C55.2443 22.2273 54.3376 21.9953 53.5753 21.5312C52.8177 21.0625 52.233 20.4091 51.821 19.571C51.4138 18.7282 51.2102 17.7481 51.2102 16.6307C51.2102 15.5133 51.4138 14.5284 51.821 13.6761C52.233 12.8191 52.8059 12.1515 53.5398 11.6733C54.2784 11.1903 55.1402 10.9489 56.125 10.9489C56.6932 10.9489 57.2543 11.0436 57.8082 11.233C58.3622 11.4223 58.8665 11.7301 59.321 12.1562C59.7756 12.5777 60.1378 13.1364 60.4077 13.8324C60.6776 14.5284 60.8125 15.3854 60.8125 16.4034V17.1136H52.4034V15.6648H59.108C59.108 15.0492 58.9848 14.5 58.7386 14.017C58.4972 13.5341 58.1515 13.1529 57.7017 12.8736C57.2566 12.5942 56.7311 12.4545 56.125 12.4545C55.4574 12.4545 54.8797 12.6203 54.392 12.9517C53.9091 13.2784 53.5374 13.7045 53.277 14.2301C53.0166 14.7557 52.8864 15.3191 52.8864 15.9205V16.8864C52.8864 17.7102 53.0284 18.4086 53.3125 18.9815C53.6013 19.5497 54.0014 19.983 54.5128 20.2812C55.0241 20.5748 55.6184 20.7216 56.2955 20.7216C56.7358 20.7216 57.1335 20.66 57.4886 20.5369C57.8485 20.4091 58.1586 20.2197 58.419 19.9688C58.6795 19.7131 58.8807 19.3958 59.0227 19.017L60.642 19.4716C60.4716 20.0208 60.1851 20.5038 59.7827 20.9205C59.3802 21.3324 58.883 21.6544 58.2912 21.8864C57.6993 22.1136 57.0341 22.2273 56.2955 22.2273ZM68.1065 11.0909V12.5114H62.4531V11.0909H68.1065ZM64.1009 8.47727H65.777V18.875C65.777 19.3485 65.8456 19.7036 65.983 19.9403C66.125 20.1723 66.3049 20.3286 66.5227 20.4091C66.7453 20.4848 66.9796 20.5227 67.2259 20.5227C67.4105 20.5227 67.562 20.5133 67.6804 20.4943C67.7988 20.4706 67.8935 20.4517 67.9645 20.4375L68.3054 21.9432C68.1918 21.9858 68.0331 22.0284 67.8295 22.071C67.6259 22.1184 67.3679 22.142 67.0554 22.142C66.5819 22.142 66.1179 22.0402 65.6634 21.8366C65.2135 21.633 64.8395 21.3229 64.5412 20.9062C64.2476 20.4896 64.1009 19.964 64.1009 19.3295V8.47727ZM72.304 15.4375V22H70.6278V11.0909H72.2472V12.7955H72.3892C72.6449 12.2415 73.0331 11.7964 73.554 11.4602C74.0748 11.1193 74.7472 10.9489 75.571 10.9489C76.3097 10.9489 76.956 11.1004 77.5099 11.4034C78.0639 11.7017 78.4948 12.1562 78.8026 12.767C79.1103 13.3731 79.2642 14.1402 79.2642 15.0682V22H77.5881V15.1818C77.5881 14.3248 77.3655 13.6572 76.9205 13.179C76.4754 12.696 75.8646 12.4545 75.0881 12.4545C74.553 12.4545 74.0748 12.5705 73.6534 12.8026C73.2367 13.0346 72.9077 13.3731 72.6662 13.8182C72.4247 14.2633 72.304 14.803 72.304 15.4375ZM86.7589 22.2273C85.774 22.2273 84.9099 21.9929 84.1665 21.5241C83.4279 21.0554 82.8503 20.3996 82.4336 19.5568C82.0217 18.714 81.8157 17.7292 81.8157 16.6023C81.8157 15.4659 82.0217 14.474 82.4336 13.6264C82.8503 12.7789 83.4279 12.1207 84.1665 11.652C84.9099 11.1832 85.774 10.9489 86.7589 10.9489C87.7437 10.9489 88.6055 11.1832 89.3441 11.652C90.0875 12.1207 90.6651 12.7789 91.0771 13.6264C91.4937 14.474 91.7021 15.4659 91.7021 16.6023C91.7021 17.7292 91.4937 18.714 91.0771 19.5568C90.6651 20.3996 90.0875 21.0554 89.3441 21.5241C88.6055 21.9929 87.7437 22.2273 86.7589 22.2273ZM86.7589 20.7216C87.507 20.7216 88.1225 20.5298 88.6055 20.1463C89.0884 19.7628 89.4459 19.2585 89.6779 18.6335C89.9099 18.0085 90.0259 17.3314 90.0259 16.6023C90.0259 15.8731 89.9099 15.1937 89.6779 14.5639C89.4459 13.9342 89.0884 13.4252 88.6055 13.0369C88.1225 12.6487 87.507 12.4545 86.7589 12.4545C86.0108 12.4545 85.3952 12.6487 84.9123 13.0369C84.4293 13.4252 84.0719 13.9342 83.8398 14.5639C83.6078 15.1937 83.4918 15.8731 83.4918 16.6023C83.4918 17.3314 83.6078 18.0085 83.8398 18.6335C84.0719 19.2585 84.4293 19.7628 84.9123 20.1463C85.3952 20.5298 86.0108 20.7216 86.7589 20.7216ZM96.3612 22L93.0373 11.0909H94.7987L97.1566 19.4432H97.2702L99.5998 11.0909H101.39L103.691 19.4148H103.804L106.162 11.0909H107.924L104.6 22H102.952L100.566 13.6193H100.395L98.0089 22H96.3612Z" fill="black"/>
</svg>
