<svg width="30" height="32" viewBox="0 0 30 32" fill="none" xmlns="http://www.w3.org/2000/svg">
<path d="M12.0002 0.554653C12.1954 0.791882 12.315 1.08221 12.3436 1.38811C12.3721 1.69402 12.3082 2.00145 12.1602 2.27068C11.0039 4.39367 10.4 6.77335 10.4042 9.1908C10.4042 17.2329 16.9603 23.7451 25.0404 23.7451C26.0944 23.7451 27.1205 23.635 28.1065 23.425C28.4087 23.3596 28.7236 23.3846 29.0117 23.497C29.2998 23.6094 29.5484 23.8042 29.7265 24.0571C29.9145 24.32 30.0103 24.6376 29.9991 24.9606C29.9879 25.2836 29.8703 25.5939 29.6645 25.8431C28.0958 27.77 26.1169 29.3225 23.8721 30.3875C21.6272 31.4525 19.173 32.0031 16.6883 31.9992C7.46813 31.9992 0 24.5711 0 15.4189C0 8.53079 4.22807 2.62269 10.2482 0.118646C10.5481 -0.00809256 10.881 -0.0341051 11.1969 0.044516C11.5128 0.123137 11.7947 0.302146 12.0002 0.554653ZM9.71617 2.62069C7.40133 3.86237 5.46617 5.70803 4.11633 7.9615C2.7665 10.215 2.05244 12.7921 2.05004 15.4189C2.05004 23.459 8.60815 29.9712 16.6883 29.9712C18.6232 29.9745 20.5396 29.5941 22.3265 28.8518C24.1134 28.1096 25.7353 27.0203 27.0985 25.6471C26.4245 25.7311 25.7384 25.7731 25.0404 25.7731C15.8203 25.7731 8.35414 18.345 8.35414 9.1928C8.35414 6.85876 8.83815 4.63672 9.71617 2.62069Z" fill="white"/>
</svg>
