<svg width="32" height="32" viewBox="0 0 32 32" fill="none" xmlns="http://www.w3.org/2000/svg">
<path fill-rule="evenodd" clip-rule="evenodd" d="M8.64718 24.5712C14.1232 23.7712 17.8936 23.84 23.3768 24.5992C23.7739 24.6568 24.1367 24.8561 24.3983 25.1603C24.6599 25.4646 24.8026 25.8532 24.8 26.2544C24.8 26.6384 24.668 27.0112 24.4296 27.3024C24.0141 27.8101 23.5884 28.3094 23.1528 28.8H25.2656C25.3984 28.6416 25.532 28.48 25.6672 28.316C26.1417 27.7341 26.4006 27.0061 26.4 26.2552C26.4 24.6352 25.2176 23.2392 23.596 23.0152C17.9832 22.2384 14.06 22.164 8.41598 22.9888C6.77758 23.228 5.59998 24.6456 5.59998 26.2768C5.59998 27.0008 5.83598 27.7168 6.28318 28.2968C6.41518 28.468 6.54558 28.636 6.67518 28.8008H8.73678C8.33151 28.3156 7.93623 27.8222 7.55118 27.3208C7.32235 27.0207 7.1989 26.6534 7.19998 26.276C7.19998 25.4144 7.81918 24.692 8.64718 24.5712ZM16 16.8C16.6303 16.8 17.2545 16.6759 17.8369 16.4346C18.4192 16.1934 18.9484 15.8398 19.3941 15.3941C19.8398 14.9484 20.1934 14.4192 20.4346 13.8369C20.6758 13.2545 20.8 12.6304 20.8 12C20.8 11.3697 20.6758 10.7455 20.4346 10.1631C20.1934 9.58076 19.8398 9.05161 19.3941 8.60589C18.9484 8.16017 18.4192 7.80661 17.8369 7.56538C17.2545 7.32416 16.6303 7.20001 16 7.20001C14.7269 7.20001 13.506 7.70572 12.6059 8.60589C11.7057 9.50607 11.2 10.727 11.2 12C11.2 13.273 11.7057 14.4939 12.6059 15.3941C13.506 16.2943 14.7269 16.8 16 16.8ZM16 18.4C17.6974 18.4 19.3252 17.7257 20.5255 16.5255C21.7257 15.3253 22.4 13.6974 22.4 12C22.4 10.3026 21.7257 8.67476 20.5255 7.47452C19.3252 6.27429 17.6974 5.60001 16 5.60001C14.3026 5.60001 12.6747 6.27429 11.4745 7.47452C10.2743 8.67476 9.59998 10.3026 9.59998 12C9.59998 13.6974 10.2743 15.3253 11.4745 16.5255C12.6747 17.7257 14.3026 18.4 16 18.4Z" fill="white"/>
<path fill-rule="evenodd" clip-rule="evenodd" d="M16 30.4C23.9528 30.4 30.4 23.9528 30.4 16C30.4 8.0472 23.9528 1.6 16 1.6C8.0472 1.6 1.6 8.0472 1.6 16C1.6 23.9528 8.0472 30.4 16 30.4ZM16 32C24.8368 32 32 24.8368 32 16C32 7.1632 24.8368 0 16 0C7.1632 0 0 7.1632 0 16C0 24.8368 7.1632 32 16 32Z" fill="white"/>
</svg>
